<svg width="18" height="30" viewBox="0 0 18 30" fill="none" xmlns="http://www.w3.org/2000/svg">
<g clip-path="url(#clip0_168_8814)">
<path fill-rule="evenodd" clip-rule="evenodd" d="M7.21421 29.9611C6.91672 29.9611 6.60063 29.9244 6.30314 29.851C5.11318 29.5758 4.12775 28.8236 3.51418 27.7045C2.9006 26.5854 2.73326 25.2645 3.04935 23.9803C3.1795 23.4299 3.38402 22.8979 3.66292 22.4209L3.81167 22.2008C3.81167 22.1824 4.59258 20.9716 4.92725 19.3205C5.37349 17.1556 4.90866 15.2844 3.51418 13.7617L3.1795 13.3764H3.19809C2.45437 12.4041 2.08251 11.2666 2.13828 10.1292C2.28703 7.1021 5.28052 4.79052 8.8504 4.93729C10.561 5.02902 12.1414 5.67113 13.3127 6.73519C14.5027 7.83594 15.0977 9.24857 15.0419 10.7162C15.0419 10.7713 15.358 19.6874 11.4348 27.1541C11.3791 27.2642 11.3233 27.3743 11.2489 27.4844L11.063 27.8513L11.0444 27.8329C10.1147 29.1722 8.68306 29.9611 7.21421 29.9611ZM4.48102 22.3108L4.49961 22.3292L4.35087 22.5493C4.03478 23.0263 3.81167 23.54 3.68151 24.1087C3.40262 25.2462 3.55136 26.4203 4.09056 27.3926C4.61117 28.3466 5.44786 29.0071 6.45189 29.2272C8.0323 29.5941 9.72428 28.7869 10.6725 27.2092L10.7097 27.1541C10.7655 27.0624 10.8027 26.9707 10.8585 26.8606C14.7072 19.5406 14.3911 10.7896 14.3911 10.6979C14.4469 9.39534 13.9077 8.16616 12.8665 7.19383C11.8067 6.2215 10.375 5.65278 8.81321 5.5794C5.6152 5.43263 2.9192 7.48737 2.78904 10.1475C2.73326 11.285 3.16091 12.4041 4.01619 13.3214L4.36946 13.7066H4.33227C5.5966 15.3027 6.02425 17.2841 5.55942 19.4672C5.28052 20.8248 4.74132 21.8705 4.48102 22.3108Z" fill="#3DA432"/>
<path fill-rule="evenodd" clip-rule="evenodd" d="M2.62163 5.61609C2.1568 5.61609 1.69197 5.46932 1.26433 5.15744C0.706539 4.75383 0.29749 4.13007 0.111559 3.41458C-0.278897 1.91022 0.446235 0.424203 1.72916 0.0939777C3.03068 -0.217902 4.38798 0.736083 4.77843 2.24044C4.96436 2.95593 4.90858 3.68977 4.61109 4.31353C4.29501 4.95563 3.793 5.39594 3.14224 5.56105C2.9749 5.59774 2.80756 5.61609 2.62163 5.61609ZM2.24977 0.681046C2.13821 0.681046 2.00806 0.699391 1.8965 0.717737C0.948249 0.956234 0.427642 2.09368 0.743725 3.26781C0.89247 3.83654 1.20855 4.33187 1.65479 4.64375C2.06384 4.93729 2.54726 5.04736 2.99349 4.93729C3.43973 4.82721 3.793 4.51533 4.01611 4.03834C4.25782 3.56135 4.29501 2.97428 4.14627 2.40556C3.88596 1.37819 3.06786 0.681046 2.24977 0.681046Z" fill="#3DA432"/>
<path fill-rule="evenodd" clip-rule="evenodd" d="M6.80518 3.7448C6.39613 3.7448 6.00567 3.56134 5.70818 3.24946C5.3921 2.91924 5.20617 2.46059 5.18757 1.9836C5.1318 0.974576 5.80115 0.11232 6.67502 0.0756282C7.5489 0.0205906 8.31122 0.809463 8.367 1.81849C8.42278 2.82751 7.75343 3.68976 6.87955 3.7448C6.86096 3.7448 6.82377 3.7448 6.80518 3.7448ZM6.7494 0.699388C6.7494 0.699388 6.7308 0.699388 6.71221 0.699388C6.1916 0.73608 5.80115 1.28646 5.83833 1.94691C5.85693 2.27713 5.96849 2.58901 6.1916 2.80916C6.37753 3.01097 6.61924 3.1027 6.84236 3.1027C7.36297 3.06601 7.77202 2.51563 7.71624 1.85518C7.69765 1.21307 7.25141 0.699388 6.7494 0.699388Z" fill="#3DA432"/>
<path fill-rule="evenodd" clip-rule="evenodd" d="M10.3192 4.03834C10.2634 4.03834 10.2262 4.03834 10.1704 4.03834C9.29656 3.94661 8.6644 3.04766 8.77595 2.03864C8.83173 1.56165 9.03626 1.12135 9.37093 0.809467C9.70561 0.479242 10.1333 0.332475 10.5609 0.369166C11.0071 0.424204 11.379 0.6627 11.6579 1.04796C11.8996 1.43323 12.0112 1.89187 11.9554 2.36887C11.8438 3.32285 11.1373 4.03834 10.3192 4.03834ZM10.2262 3.39623C10.7654 3.45127 11.2302 2.97428 11.3046 2.31383C11.3418 1.9836 11.2674 1.65338 11.1001 1.41488C10.9513 1.17638 10.7282 1.04796 10.4865 1.01127C10.2634 0.992926 10.0217 1.08466 9.81717 1.26811C9.59405 1.48826 9.4639 1.7818 9.42671 2.11202C9.35234 2.77248 9.7242 3.3412 10.2262 3.39623Z" fill="#3DA432"/>
<path fill-rule="evenodd" clip-rule="evenodd" d="M13.4242 4.91895C13.2941 4.91895 13.1639 4.88225 13.0338 4.84556C12.2901 4.60706 11.8996 3.70812 12.1971 2.86421C12.476 2.00195 13.3127 1.48827 14.075 1.72676C14.8187 1.96526 15.1906 2.86421 14.9117 3.72646C14.67 4.44195 14.0564 4.91895 13.4242 4.91895ZM13.2383 4.24015C13.6474 4.36857 14.1122 4.05669 14.2981 3.52466C14.4654 3.01097 14.2609 2.4606 13.8705 2.33218C13.4614 2.20376 12.978 2.53398 12.8107 3.04767C12.6247 3.5797 12.8293 4.11173 13.2383 4.24015Z" fill="#3DA432"/>
<path fill-rule="evenodd" clip-rule="evenodd" d="M15.6183 6.68014C15.3766 6.68014 15.1349 6.60676 14.9304 6.44165C14.6515 6.23984 14.5027 5.92796 14.4841 5.56105C14.4841 5.21248 14.5957 4.8639 14.8374 4.57037C15.3208 3.94661 16.1575 3.7815 16.6967 4.20345C16.9384 4.36857 17.0872 4.64375 17.1244 4.95563C17.1801 5.3409 17.05 5.74451 16.7897 6.07473C16.5666 6.36827 16.2505 6.57007 15.9158 6.64345C15.8228 6.6618 15.7299 6.68014 15.6183 6.68014ZM15.9902 4.60706C15.7671 4.60706 15.5253 4.73548 15.3394 4.95563C15.2093 5.13909 15.1349 5.3409 15.1349 5.5427C15.1535 5.70781 15.2093 5.85458 15.3394 5.94631C15.451 6.03804 15.5997 6.05639 15.7856 6.01969C15.9716 5.983 16.1575 5.85458 16.2877 5.68947C16.4364 5.48766 16.5108 5.24917 16.4922 5.04736C16.4736 4.93729 16.4364 4.79052 16.3063 4.69879C16.2133 4.64375 16.1017 4.60706 15.9902 4.60706Z" fill="#3DA432"/>
<path fill-rule="evenodd" clip-rule="evenodd" d="M7.21421 29.9611C6.91672 29.9611 6.60063 29.9244 6.30314 29.851C5.11318 29.5758 4.12775 28.8236 3.51418 27.7045C2.9006 26.5854 2.73326 25.2645 3.04935 23.9803C3.1795 23.4299 3.38402 22.8979 3.66292 22.4209L3.81167 22.2008C3.81167 22.1824 4.59258 20.9716 4.92725 19.3205C5.37349 17.1556 4.90866 15.2844 3.51418 13.7617L3.1795 13.3764H3.19809C2.45437 12.4041 2.08251 11.2666 2.13828 10.1292C2.28703 7.1021 5.28052 4.79052 8.8504 4.93729C10.561 5.02902 12.1414 5.67113 13.3127 6.73519C14.5027 7.83594 15.0977 9.24857 15.0419 10.7162C15.0419 10.7713 15.358 19.6874 11.4348 27.1541C11.3791 27.2642 11.3233 27.3743 11.2489 27.4844L11.063 27.8513L11.0444 27.8329C10.1147 29.1722 8.68306 29.9611 7.21421 29.9611ZM4.48102 22.3108L4.49961 22.3292L4.35087 22.5493C4.03478 23.0263 3.81167 23.54 3.68151 24.1087C3.40262 25.2462 3.55136 26.4203 4.09056 27.3926C4.61117 28.3466 5.44786 29.0071 6.45189 29.2272C8.0323 29.5941 9.72428 28.7869 10.6725 27.2092L10.7097 27.1541C10.7655 27.0624 10.8027 26.9707 10.8585 26.8606C14.7072 19.5406 14.3911 10.7896 14.3911 10.6979C14.4469 9.39534 13.9077 8.16616 12.8665 7.19383C11.8067 6.2215 10.375 5.65278 8.81321 5.5794C5.6152 5.43263 2.9192 7.48737 2.78904 10.1475C2.73326 11.285 3.16091 12.4041 4.01619 13.3214L4.36946 13.7066H4.33227C5.5966 15.3027 6.02425 17.2841 5.55942 19.4672C5.28052 20.8248 4.74132 21.8705 4.48102 22.3108Z" fill="#3DA432"/>
<path fill-rule="evenodd" clip-rule="evenodd" d="M2.62163 5.61609C2.1568 5.61609 1.69197 5.46932 1.26433 5.15744C0.706539 4.75383 0.29749 4.13007 0.111559 3.41458C-0.278897 1.91022 0.446235 0.424203 1.72916 0.0939777C3.03068 -0.217902 4.38798 0.736083 4.77843 2.24044C4.96436 2.95593 4.90858 3.68977 4.61109 4.31353C4.29501 4.95563 3.793 5.39594 3.14224 5.56105C2.9749 5.59774 2.80756 5.61609 2.62163 5.61609ZM2.24977 0.681046C2.13821 0.681046 2.00806 0.699391 1.8965 0.717737C0.948249 0.956234 0.427642 2.09368 0.743725 3.26781C0.89247 3.83654 1.20855 4.33187 1.65479 4.64375C2.06384 4.93729 2.54726 5.04736 2.99349 4.93729C3.43973 4.82721 3.793 4.51533 4.01611 4.03834C4.25782 3.56135 4.29501 2.97428 4.14627 2.40556C3.88596 1.37819 3.06786 0.681046 2.24977 0.681046Z" fill="#3DA432"/>
<path fill-rule="evenodd" clip-rule="evenodd" d="M6.80518 3.7448C6.39613 3.7448 6.00567 3.56134 5.70818 3.24946C5.3921 2.91924 5.20617 2.46059 5.18757 1.9836C5.1318 0.974576 5.80115 0.11232 6.67502 0.0756282C7.5489 0.0205906 8.31122 0.809463 8.367 1.81849C8.42278 2.82751 7.75343 3.68976 6.87955 3.7448C6.86096 3.7448 6.82377 3.7448 6.80518 3.7448ZM6.7494 0.699388C6.7494 0.699388 6.7308 0.699388 6.71221 0.699388C6.1916 0.73608 5.80115 1.28646 5.83833 1.94691C5.85693 2.27713 5.96849 2.58901 6.1916 2.80916C6.37753 3.01097 6.61924 3.1027 6.84236 3.1027C7.36297 3.06601 7.77202 2.51563 7.71624 1.85518C7.69765 1.21307 7.25141 0.699388 6.7494 0.699388Z" fill="#3DA432"/>
<path fill-rule="evenodd" clip-rule="evenodd" d="M10.3192 4.03834C10.2634 4.03834 10.2262 4.03834 10.1704 4.03834C9.29656 3.94661 8.6644 3.04766 8.77595 2.03864C8.83173 1.56165 9.03626 1.12135 9.37093 0.809467C9.70561 0.479242 10.1333 0.332475 10.5609 0.369166C11.0071 0.424204 11.379 0.6627 11.6579 1.04796C11.8996 1.43323 12.0112 1.89187 11.9554 2.36887C11.8438 3.32285 11.1373 4.03834 10.3192 4.03834ZM10.2262 3.39623C10.7654 3.45127 11.2302 2.97428 11.3046 2.31383C11.3418 1.9836 11.2674 1.65338 11.1001 1.41488C10.9513 1.17638 10.7282 1.04796 10.4865 1.01127C10.2634 0.992926 10.0217 1.08466 9.81717 1.26811C9.59405 1.48826 9.4639 1.7818 9.42671 2.11202C9.35234 2.77248 9.7242 3.3412 10.2262 3.39623Z" fill="#3DA432"/>
<path fill-rule="evenodd" clip-rule="evenodd" d="M13.4242 4.91895C13.2941 4.91895 13.1639 4.88225 13.0338 4.84556C12.2901 4.60706 11.8996 3.70812 12.1971 2.86421C12.476 2.00195 13.3127 1.48827 14.075 1.72676C14.8187 1.96526 15.1906 2.86421 14.9117 3.72646C14.67 4.44195 14.0564 4.91895 13.4242 4.91895ZM13.2383 4.24015C13.6474 4.36857 14.1122 4.05669 14.2981 3.52466C14.4654 3.01097 14.2609 2.4606 13.8705 2.33218C13.4614 2.20376 12.978 2.53398 12.8107 3.04767C12.6247 3.5797 12.8293 4.11173 13.2383 4.24015Z" fill="#3DA432"/>
<path fill-rule="evenodd" clip-rule="evenodd" d="M15.6183 6.68014C15.3766 6.68014 15.1349 6.60676 14.9304 6.44165C14.6515 6.23984 14.5027 5.92796 14.4841 5.56105C14.4841 5.21248 14.5957 4.8639 14.8374 4.57037C15.3208 3.94661 16.1575 3.7815 16.6967 4.20345C16.9384 4.36857 17.0872 4.64375 17.1244 4.95563C17.1801 5.3409 17.05 5.74451 16.7897 6.07473C16.5666 6.36827 16.2505 6.57007 15.9158 6.64345C15.8228 6.6618 15.7299 6.68014 15.6183 6.68014ZM15.9902 4.60706C15.7671 4.60706 15.5253 4.73548 15.3394 4.95563C15.2093 5.13909 15.1349 5.3409 15.1349 5.5427C15.1535 5.70781 15.2093 5.85458 15.3394 5.94631C15.451 6.03804 15.5997 6.05639 15.7856 6.01969C15.9716 5.983 16.1575 5.85458 16.2877 5.68947C16.4364 5.48766 16.5108 5.24917 16.4922 5.04736C16.4736 4.93729 16.4364 4.79052 16.3063 4.69879C16.2133 4.64375 16.1017 4.60706 15.9902 4.60706Z" fill="#3DA432"/>
</g>
<defs>
<clipPath id="clip0_168_8814">
<rect width="17.1429" height="30" fill="white"/>
</clipPath>
</defs>
</svg>
